<?xml version="1.0" encoding="UTF-8"?>
<!-- Google G logo for Sign in button usage -->
<svg width="18" height="18" viewBox="0 0 48 48" xmlns="http://www.w3.org/2000/svg" aria-hidden="true" focusable="false">
  <path fill="#FFC107" d="M43.611 20.083H42V20H24v8h11.303c-1.649 4.657-6.08 8-11.303 8-6.627 0-12-5.373-12-12s5.373-12 12-12c3.059 0 5.842 1.153 7.957 3.043l5.657-5.657C33.69 6.053 29.08 4 24 4 12.955 4 4 12.955 4 24s8.955 20 20 20 20-8.955 20-20c0-1.341-.138-2.651-.389-3.917z"/>
  <path fill="#FF3D00" d="M6.306 14.691l6.571 4.817C14.39 16.108 18.84 14 24 14c3.059 0 5.842 1.153 7.957 3.043l5.657-5.657C33.69 6.053 29.08 4 24 4 15.402 4 8.148 9.153 6.306 14.691z"/>
  <path fill="#4CAF50" d="M24 44c5.183 0 9.852-1.977 13.377-5.197l-6.166-5.225C29.135 35.488 26.695 36.5 24 36.5c-5.204 0-9.62-3.317-11.279-7.956l-6.56 5.058C8.032 39.723 15.313 44 24 44z"/>
  <path fill="#1976D2" d="M43.611 20.083H42V20H24v8h11.303c-1.001 2.828-2.98 5.229-5.492 6.969l.004-.003 6.166 5.225C38.463 37.563 44 31.5 44 24c0-1.341-.138-2.651-.389-3.917z"/>
</svg>
