<svg width="122" height="60" viewBox="0 0 122 60" fill="none" xmlns="http://www.w3.org/2000/svg">
<path d="M106.977 34.3906C106.977 32.9219 107.141 31.5391 107.469 30.2422C107.812 28.9453 108.312 27.8281 108.969 26.8906C109.625 25.9375 110.438 25.1953 111.406 24.6641C112.391 24.1172 113.523 23.8438 114.805 23.8438C116.727 23.8438 118.25 24.4219 119.375 25.5781C120.516 26.7188 121.086 28.1875 121.086 29.9844C121.086 31.2031 120.867 32.2891 120.43 33.2422C120.008 34.1797 119.398 34.9688 118.602 35.6094C117.805 36.25 116.859 36.7344 115.766 37.0625C114.672 37.375 113.469 37.5312 112.156 37.5312H110.234C110.344 38.2344 110.492 38.9375 110.68 39.6406C110.867 40.3438 111.133 40.9844 111.477 41.5625C111.836 42.125 112.305 42.5938 112.883 42.9688C113.461 43.3438 114.18 43.5312 115.039 43.5312C116.039 43.5312 116.852 43.3203 117.477 42.8984C118.102 42.4766 118.594 41.9375 118.953 41.2812C119.328 40.625 119.586 39.8906 119.727 39.0781C119.867 38.2656 119.938 37.4766 119.938 36.7109H121.484C121.484 37.7891 121.359 38.8281 121.109 39.8281C120.875 40.8125 120.492 41.6953 119.961 42.4766C119.43 43.2422 118.742 43.8438 117.898 44.2812C117.055 44.7344 116.023 44.9609 114.805 44.9609C112.273 44.9609 110.336 44.0938 108.992 42.3594C107.648 40.6094 106.977 37.9531 106.977 34.3906ZM110.094 36.0781H111.875C113.641 36.0781 115.094 35.5859 116.234 34.6016C117.391 33.6016 117.969 32.1406 117.969 30.2188C117.969 29.6406 117.922 29.0625 117.828 28.4844C117.734 27.8906 117.562 27.3516 117.312 26.8672C117.078 26.3828 116.742 26 116.305 25.7188C115.883 25.4219 115.32 25.2734 114.617 25.2734C113.648 25.2734 112.867 25.5625 112.273 26.1406C111.695 26.7188 111.242 27.4531 110.914 28.3438C110.602 29.2188 110.383 30.2031 110.258 31.2969C110.148 32.375 110.094 33.4062 110.094 34.3906V36.0781Z" fill="#FAAF08"/>
<path d="M96.8984 25.2734C95.3516 25.2734 94.2031 26.0547 93.4531 27.6172C92.7031 29.1641 92.3281 31.4375 92.3281 34.4375C92.3281 37.4219 92.7109 39.6875 93.4766 41.2344C94.2422 42.7656 95.3828 43.5312 96.8984 43.5312C98.4297 43.5312 99.5703 42.7578 100.32 41.2109C101.07 39.6484 101.445 37.3594 101.445 34.3438C101.445 28.2969 99.9297 25.2734 96.8984 25.2734ZM89.2109 28.4375H88.7188C88.625 28.9844 88.3594 29.5078 87.9219 30.0078C87.5 30.5078 86.9688 30.7578 86.3281 30.7578V29.3047C86.8125 29.1797 87.2266 28.9375 87.5703 28.5781C87.9297 28.2031 88.2266 27.7969 88.4609 27.3594C88.6953 26.9062 88.875 26.4531 89 26C89.1406 25.5469 89.2109 25.1484 89.2109 24.8047H92.3281V26.8203H92.7969C93.375 25.8828 94.0938 25.1562 94.9531 24.6406C95.8281 24.1094 96.7969 23.8438 97.8594 23.8438C100.062 23.8438 101.727 24.7656 102.852 26.6094C103.992 28.4375 104.562 31.0469 104.562 34.4375C104.562 36.5 104.312 38.2891 103.812 39.8047C103.328 41.3203 102.602 42.5234 101.633 43.4141C101.023 43.9922 100.375 44.3906 99.6875 44.6094C99 44.8438 98.1953 44.9609 97.2734 44.9609C96.0547 44.9609 94.9922 44.5859 94.0859 43.8359C93.1953 43.0859 92.6094 42.0391 92.3281 40.6953H91.8594C91.8906 41.9453 91.9375 43.4062 92 45.0781C92.0625 46.7656 92.1406 48.4922 92.2344 50.2578C92.3281 52.0391 92.4297 53.7656 92.5391 55.4375C92.6484 57.125 92.7578 58.5938 92.8672 59.8438H89.7266C89.6641 58.8438 89.6016 57.5625 89.5391 56C89.4766 54.4375 89.4219 52.7812 89.375 51.0312C89.3281 49.2812 89.2891 47.5312 89.2578 45.7812C89.2266 44.0469 89.2109 42.4922 89.2109 41.1172V28.4375Z" fill="#FAAF08"/>
<path d="M78.5 16.8828C79.1094 16.8828 79.6406 17.1094 80.0938 17.5625C80.5469 18 80.7734 18.5234 80.7734 19.1328C80.7734 19.7422 80.5469 20.2656 80.0938 20.7031C79.6406 21.125 79.1094 21.3359 78.5 21.3359C77.9062 21.3359 77.3906 21.125 76.9531 20.7031C76.5156 20.2656 76.2969 19.7422 76.2969 19.1328C76.2969 18.5234 76.5156 18 76.9531 17.5625C77.3906 17.1094 77.9062 16.8828 78.5 16.8828ZM76.9766 28.4375H76.4844C76.3906 28.9844 76.125 29.5078 75.6875 30.0078C75.2656 30.5078 74.7344 30.7578 74.0938 30.7578V29.3047C74.5781 29.1797 74.9922 28.9375 75.3359 28.5781C75.6953 28.2031 75.9922 27.7969 76.2266 27.3594C76.4609 26.9062 76.6406 26.4531 76.7656 26C76.9062 25.5469 76.9766 25.1484 76.9766 24.8047H80.0938V34.7422C80.0938 35.8203 80.1094 36.8516 80.1406 37.8359C80.1719 38.8047 80.25 39.6875 80.375 40.4844C80.5469 41.4531 80.8281 42.2031 81.2188 42.7344C81.625 43.2656 82.1484 43.5312 82.7891 43.5312C83.3359 43.5312 83.7656 43.3828 84.0781 43.0859C84.3906 42.7734 84.6328 42.375 84.8047 41.8906C84.9922 41.4062 85.1094 40.8828 85.1562 40.3203C85.2031 39.7578 85.2266 39.2422 85.2266 38.7734V36.7109H86.7734V38.6797C86.7734 39.5703 86.6953 40.3984 86.5391 41.1641C86.3984 41.9297 86.1562 42.5938 85.8125 43.1562C85.4844 43.7188 85.0391 44.1562 84.4766 44.4688C83.9297 44.7969 83.2188 44.9609 82.3438 44.9609C81.4531 44.9609 80.6328 44.7734 79.8828 44.3984C79.1328 44.0391 78.5312 43.4453 78.0781 42.6172C77.625 41.8047 77.3281 40.8203 77.1875 39.6641C77.0469 38.4922 76.9766 36.8516 76.9766 34.7422V28.4375Z" fill="#FAAF08"/>
<path d="M59.7734 34.3438C59.7734 32.875 59.9531 31.4922 60.3125 30.1953C60.6875 28.8984 61.2266 27.7891 61.9297 26.8672C62.6328 25.9297 63.4844 25.1953 64.4844 24.6641C65.5 24.1172 66.6484 23.8438 67.9297 23.8438C68.5391 23.8438 69.1406 23.9141 69.7344 24.0547C70.3281 24.1953 70.8438 24.4297 71.2812 24.7578C71.7344 25.0703 72.0938 25.4609 72.3594 25.9297C72.6406 26.3984 72.7812 26.9688 72.7812 27.6406C72.7812 28.4688 72.5234 29.1953 72.0078 29.8203C71.5078 30.4453 70.7734 30.7578 69.8047 30.7578C68.7891 30.7578 68.0547 30.4453 67.6016 29.8203C67.1484 29.1953 66.9219 28.3828 66.9219 27.3828H68.4688C68.4688 27.8672 68.5625 28.3125 68.75 28.7188C68.9375 29.1094 69.3047 29.3047 69.8516 29.3047C70.2422 29.3047 70.5703 29.1875 70.8359 28.9531C71.1172 28.7188 71.2578 28.2969 71.2578 27.6875C71.2578 26.875 70.9375 26.2734 70.2969 25.8828C69.6562 25.4766 68.8672 25.2734 67.9297 25.2734C66.3359 25.2734 65.0938 26.0469 64.2031 27.5938C63.3281 29.125 62.8906 31.3906 62.8906 34.3906C62.8906 35.3594 62.9453 36.375 63.0547 37.4375C63.1797 38.4844 63.4141 39.4688 63.7578 40.3906C64.1172 41.2969 64.6172 42.0469 65.2578 42.6406C65.8984 43.2344 66.7578 43.5312 67.8359 43.5312C68.7734 43.5312 69.5391 43.3125 70.1328 42.875C70.7422 42.4375 71.2266 41.8828 71.5859 41.2109C71.9453 40.5391 72.1953 39.8047 72.3359 39.0078C72.4766 38.2109 72.5469 37.4453 72.5469 36.7109H74.0938C74.0938 37.5078 73.9922 38.3906 73.7891 39.3594C73.6016 40.3125 73.2656 41.2031 72.7812 42.0312C72.2969 42.8594 71.6328 43.5547 70.7891 44.1172C69.9453 44.6797 68.8828 44.9609 67.6016 44.9609C66.2266 44.9609 65.0391 44.7031 64.0391 44.1875C63.0547 43.6719 62.25 42.9531 61.625 42.0312C61 41.1094 60.5312 40 60.2188 38.7031C59.9219 37.4062 59.7734 35.9531 59.7734 34.3438Z" fill="#FAAF08"/>
<path d="M42.6172 34.3906C42.6172 32.9219 42.7812 31.5391 43.1094 30.2422C43.4531 28.9453 43.9531 27.8281 44.6094 26.8906C45.2656 25.9375 46.0781 25.1953 47.0469 24.6641C48.0312 24.1172 49.1641 23.8438 50.4453 23.8438C52.3672 23.8438 53.8906 24.4219 55.0156 25.5781C56.1562 26.7188 56.7266 28.1875 56.7266 29.9844C56.7266 31.2031 56.5078 32.2891 56.0703 33.2422C55.6484 34.1797 55.0391 34.9688 54.2422 35.6094C53.4453 36.25 52.5 36.7344 51.4062 37.0625C50.3125 37.375 49.1094 37.5312 47.7969 37.5312H45.875C45.9844 38.2344 46.1328 38.9375 46.3203 39.6406C46.5078 40.3438 46.7734 40.9844 47.1172 41.5625C47.4766 42.125 47.9453 42.5938 48.5234 42.9688C49.1016 43.3438 49.8203 43.5312 50.6797 43.5312C51.6797 43.5312 52.4922 43.3203 53.1172 42.8984C53.7422 42.4766 54.2344 41.9375 54.5938 41.2812C54.9688 40.625 55.2266 39.8906 55.3672 39.0781C55.5078 38.2656 55.5781 37.4766 55.5781 36.7109H57.125C57.125 37.7891 57 38.8281 56.75 39.8281C56.5156 40.8125 56.1328 41.6953 55.6016 42.4766C55.0703 43.2422 54.3828 43.8438 53.5391 44.2812C52.6953 44.7344 51.6641 44.9609 50.4453 44.9609C47.9141 44.9609 45.9766 44.0938 44.6328 42.3594C43.2891 40.6094 42.6172 37.9531 42.6172 34.3906ZM45.7344 36.0781H47.5156C49.2812 36.0781 50.7344 35.5859 51.875 34.6016C53.0312 33.6016 53.6094 32.1406 53.6094 30.2188C53.6094 29.6406 53.5625 29.0625 53.4688 28.4844C53.375 27.8906 53.2031 27.3516 52.9531 26.8672C52.7188 26.3828 52.3828 26 51.9453 25.7188C51.5234 25.4219 50.9609 25.2734 50.2578 25.2734C49.2891 25.2734 48.5078 25.5625 47.9141 26.1406C47.3359 26.7188 46.8828 27.4531 46.5547 28.3438C46.2422 29.2188 46.0234 30.2031 45.8984 31.2969C45.7891 32.375 45.7344 33.4062 45.7344 34.3906V36.0781Z" fill="#FAAF08"/>
<path d="M27.1719 24.6641C29.0312 24.7891 30.4688 25.1719 31.4844 25.8125C32.5156 26.4531 33.2656 27.25 33.7344 28.2031C34.2188 29.1406 34.5078 30.1875 34.6016 31.3438C34.7109 32.4844 34.7656 33.6328 34.7656 34.7891C34.7656 36.4453 34.8125 37.8359 34.9062 38.9609C35 40.0859 35.1484 40.9844 35.3516 41.6562C35.5703 42.3281 35.8516 42.8125 36.1953 43.1094C36.5547 43.3906 36.9844 43.5312 37.4844 43.5312C38 43.5312 38.4062 43.3906 38.7031 43.1094C39.0156 42.8125 39.2578 42.4375 39.4297 41.9844C39.6172 41.5312 39.7422 41.0234 39.8047 40.4609C39.8672 39.8828 39.8984 39.3203 39.8984 38.7734V36.7109H41.4219V38.7266C41.4219 40.6172 41.0859 42.1328 40.4141 43.2734C39.7422 44.3984 38.5312 44.9609 36.7812 44.9609C35.7188 44.9609 34.8281 44.7266 34.1094 44.2578C33.3906 43.8047 32.8125 43.1484 32.375 42.2891C31.9531 41.4141 31.6406 40.375 31.4375 39.1719C31.25 37.9688 31.1562 36.6328 31.1562 35.1641C31.1562 33.7266 31.125 32.4062 31.0625 31.2031C31 30 30.7656 28.9766 30.3594 28.1328C29.9688 27.2891 29.3516 26.625 28.5078 26.1406C27.6797 25.6562 26.5 25.4141 24.9688 25.4141H24.0078V23.9844C26.2109 23.9531 27.9375 23.2266 29.1875 21.8047C30.4375 20.3828 31.0625 18.4844 31.0625 16.1094C31.0625 14.7969 30.8516 13.6562 30.4297 12.6875C30.0234 11.7031 29.4453 10.8906 28.6953 10.25C27.9453 9.60938 27.0547 9.10938 26.0234 8.75C24.9922 8.375 23.8906 8.14062 22.7188 8.04688C22.2656 8.90625 21.9688 9.99219 21.8281 11.3047C21.6875 12.6172 21.6172 14.2812 21.6172 16.2969C21.6172 18.2188 21.6641 20.2109 21.7578 22.2734C21.8516 24.3359 21.8984 26.6172 21.8984 29.1172C21.8984 34.1797 20.9609 38.0859 19.0859 40.8359C17.2109 43.5859 14.1641 44.9609 9.94531 44.9609C8.47656 44.9609 7.14062 44.7109 5.9375 44.2109C4.73438 43.7109 3.71094 43.0234 2.86719 42.1484C2.02344 41.2734 1.36719 40.2188 0.898438 38.9844C0.429688 37.75 0.195312 36.3828 0.195312 34.8828C0.195312 33.2422 0.46875 31.8516 1.01562 30.7109C1.5625 29.5547 2.25 28.6172 3.07812 27.8984C3.90625 27.1797 4.80469 26.6641 5.77344 26.3516C6.75781 26.0234 7.70312 25.8594 8.60938 25.8594C9.71875 25.8594 10.7109 26.0312 11.5859 26.375C12.4766 26.7031 13.2188 27.1719 13.8125 27.7812C14.4062 28.3906 14.8594 29.0938 15.1719 29.8906C15.5 30.6875 15.6641 31.5312 15.6641 32.4219C15.6641 33.0625 15.5625 33.7266 15.3594 34.4141C15.1719 35.1016 14.8672 35.7266 14.4453 36.2891C14.0391 36.8516 13.5078 37.3203 12.8516 37.6953C12.1953 38.0547 11.4219 38.2344 10.5312 38.2344C8.70312 38.2344 7.42969 37.6562 6.71094 36.5C5.99219 35.3281 5.63281 33.875 5.63281 32.1406H7.15625C7.15625 32.75 7.20312 33.3359 7.29688 33.8984C7.39062 34.4609 7.5625 34.9609 7.8125 35.3984C8.07812 35.8203 8.42969 36.1641 8.86719 36.4297C9.30469 36.6797 9.85938 36.8047 10.5312 36.8047C11.4531 36.8047 12.2812 36.4609 13.0156 35.7734C13.75 35.0859 14.1172 33.9688 14.1172 32.4219C14.1172 30.8281 13.5938 29.5781 12.5469 28.6719C11.5156 27.75 10.2031 27.2891 8.60938 27.2891C7.73438 27.2891 6.89062 27.4297 6.07812 27.7109C5.26562 27.9766 4.53906 28.4141 3.89844 29.0234C3.25781 29.6328 2.73438 30.4219 2.32812 31.3906C1.9375 32.3438 1.74219 33.5078 1.74219 34.8828C1.74219 36.5078 2.01562 37.875 2.5625 38.9844C3.125 40.0938 3.82812 40.9844 4.67188 41.6562C5.53125 42.3281 6.4375 42.8125 7.39062 43.1094C8.35938 43.3906 9.24219 43.5312 10.0391 43.5312C11.9297 43.5312 13.4375 43.1719 14.5625 42.4531C15.7031 41.7188 16.5703 40.7656 17.1641 39.5938C17.7578 38.4062 18.1484 37.0625 18.3359 35.5625C18.5391 34.0469 18.6406 32.5078 18.6406 30.9453C18.6406 29.2422 18.5938 27.375 18.5 25.3438C18.4219 23.3125 18.3828 21.2891 18.3828 19.2734C18.3828 16.4297 18.5078 14.1406 18.7578 12.4062C19.0234 10.6562 19.4766 9.1875 20.1172 8C18.9609 8.09375 17.8203 8.32812 16.6953 8.70312C15.5859 9.0625 14.5781 9.5625 13.6719 10.2031C12.7812 10.8438 12.0625 11.6406 11.5156 12.5938C10.9844 13.5312 10.7188 14.5938 10.7188 15.7812C10.7188 16.8594 10.9531 17.6875 11.4219 18.2656C11.9062 18.8438 12.5312 19.1328 13.2969 19.1328C13.9375 19.1328 14.4453 18.9453 14.8203 18.5703C15.2109 18.1797 15.4062 17.6797 15.4062 17.0703C15.4062 16.3672 15.1797 15.8906 14.7266 15.6406C14.2891 15.375 13.8438 15.2422 13.3906 15.2422V13.8125C14.4219 13.8125 15.2734 14.0938 15.9453 14.6562C16.6172 15.2031 16.9531 16.0078 16.9531 17.0703C16.9531 18.1016 16.6016 18.9453 15.8984 19.6016C15.1953 20.2578 14.3281 20.5859 13.2969 20.5859C11.9531 20.5859 10.9297 20.1562 10.2266 19.2969C9.52344 18.4219 9.17188 17.2656 9.17188 15.8281C9.17188 14.3281 9.52344 13.0078 10.2266 11.8672C10.9297 10.7266 11.8516 9.76562 12.9922 8.98438C14.1328 8.20312 15.4141 7.60938 16.8359 7.20312C18.2578 6.78125 19.6875 6.55469 21.125 6.52344C21.8906 5.61719 22.8281 4.92188 23.9375 4.4375C25.0469 3.9375 26.2578 3.6875 27.5703 3.6875V5.11719C27.1172 5.11719 26.5 5.22656 25.7188 5.44531C24.9375 5.64844 24.2578 6.03906 23.6797 6.61719C25.3359 6.77344 26.8438 7.08594 28.2031 7.55469C29.5625 8.00781 30.7188 8.63281 31.6719 9.42969C32.6406 10.2109 33.3828 11.1484 33.8984 12.2422C34.4141 13.3203 34.6719 14.5469 34.6719 15.9219C34.6719 16.7812 34.5469 17.6953 34.2969 18.6641C34.0625 19.6172 33.6562 20.4922 33.0781 21.2891C32.5 22.0859 31.7266 22.7578 30.7578 23.3047C29.8047 23.8516 28.6094 24.1406 27.1719 24.1719V24.6641Z" fill="#FAAF08"/>
<path d="M101.495 11.7197C101.495 11.5413 101.471 11.4453 101.457 11.4043L101.454 11.4023C101.335 11.3162 101.219 11.2803 101.079 11.2803C100.771 11.2804 100.379 11.4316 99.915 12.1143C99.6234 12.5488 99.4226 13.0553 99.3223 13.6484L99.3379 13.6455C100.179 13.4691 100.681 13.1561 100.975 12.7939L100.979 12.7881L100.985 12.7822C101.393 12.2959 101.495 11.9473 101.495 11.7197ZM102.495 11.7197C102.495 12.2636 102.248 12.8319 101.752 13.4238L101.56 13.6367C101.084 14.1127 100.412 14.442 99.5439 14.624L99.8799 16.04C101.592 15.736 102.935 15.1996 103.911 14.4316C104.903 13.6636 105.399 12.6636 105.399 11.4316C105.383 10.5199 104.991 9.80037 104.224 9.27246C103.552 8.79649 102.702 8.52827 101.675 8.46875L101.224 8.45605C99.4958 8.45605 98.0077 9.07189 96.7598 10.3037C95.5278 11.5357 94.9111 12.976 94.9111 14.624L94.917 14.9297C94.9751 16.4398 95.4696 17.6898 96.3994 18.6797C97.3274 19.6557 98.5915 20.1435 100.191 20.1436C101.167 20.1436 102.111 19.9682 103.023 19.6162C103.835 19.3083 104.549 18.9203 105.165 18.4531L105.424 18.248C106.768 17.0961 107.703 15.9197 108.231 14.7197C107.943 14.2238 107.623 13.8076 107.271 13.4717C106.584 14.8156 105.688 15.9043 104.584 16.7363L104.376 16.8867C103.335 17.618 102.253 17.9843 101.128 17.9844V16.9844C102.079 16.9843 103.024 16.6593 103.981 15.9375C104.954 15.2047 105.756 14.2386 106.382 13.0166L106.992 11.8232L107.962 12.749C108.393 13.1605 108.77 13.6544 109.097 14.2178L109.352 14.6572L109.146 15.123C108.541 16.4993 107.494 17.7899 106.074 19.0068L106.063 19.0166C105.297 19.6553 104.399 20.162 103.383 20.5479L103.384 20.5488C102.357 20.9451 101.291 21.1436 100.191 21.1436C98.3733 21.1435 96.8268 20.5807 95.6748 19.3691L95.6709 19.3643C94.4806 18.0971 93.9111 16.4887 93.9111 14.624C93.9111 12.6944 94.6451 11.0043 96.0527 9.59668L96.0566 9.59277C97.4887 8.17909 99.2283 7.45605 101.224 7.45605C102.599 7.45607 103.819 7.76027 104.802 8.45605H104.801C105.821 9.16197 106.378 10.1754 106.399 11.4141V11.4316C106.399 12.9769 105.757 14.264 104.529 15.2168L104.53 15.2178C103.499 16.0294 102.167 16.5798 100.591 16.917C100.756 16.9604 100.934 16.9844 101.128 16.9844V17.9844L100.827 17.9707C100.141 17.9094 99.5534 17.6335 99.0635 17.1436C98.5196 16.5676 98.2471 15.7036 98.2471 14.5518C98.2471 13.3839 98.5279 12.3837 99.0879 11.5518C99.6637 10.7041 100.327 10.2804 101.079 10.2803L101.21 10.2852C101.511 10.3079 101.787 10.41 102.039 10.5918C102.343 10.7838 102.495 11.1599 102.495 11.7197Z" fill="white"/>
<path d="M89.9404 16.376C89.9404 14.68 89.0766 13.152 87.3486 11.792C87.7326 10.96 88.2448 10.544 88.8848 10.5439C89.5406 10.5439 89.869 10.8959 89.8691 11.5996C89.8691 11.7594 89.8532 11.9277 89.8213 12.1035H89.917C90.491 12.1035 90.9667 11.975 91.3447 11.7178L91.501 11.5996C91.8649 11.2915 92.0698 10.9102 92.1152 10.4551L92.125 10.2559C92.125 9.71193 91.9244 9.27993 91.5244 8.95996C91.1745 8.66612 90.7022 8.50061 90.1074 8.46387L89.8447 8.45605C88.8528 8.45609 88.0365 8.83202 87.3965 9.58398V9.53613C87.3965 8.86118 86.968 8.50219 86.1104 8.45996L85.9326 8.45605C85.3407 8.45608 84.7566 8.54375 84.1807 8.71973L83.3408 16.04L83.3232 16.3164C83.3193 16.4283 83.3164 16.5601 83.3164 16.7119C83.3164 17.7038 83.5572 18.5276 84.0371 19.1836C84.517 19.8235 85.2766 20.1435 86.3164 20.1436C87.2914 20.1436 88.1117 19.8623 88.7773 19.2998L88.9092 19.1836C89.5969 18.5436 89.9404 17.6078 89.9404 16.376ZM86.9404 13.4717C87.9004 14.3996 88.3808 15.3279 88.3809 16.2559C88.3809 17.3917 88.029 17.9598 87.3252 17.96L87.2256 17.9561C86.8116 17.9218 86.5768 17.6659 86.5215 17.1885L86.5088 16.9521C86.5088 16.9361 86.6524 15.7757 86.9404 13.4717ZM88.8652 11.5459C88.8229 11.5477 88.7582 11.5574 88.6758 11.6152C88.737 11.6726 88.7966 11.7308 88.8555 11.7891C88.8634 11.7203 88.8691 11.6571 88.8691 11.5996C88.8691 11.5799 88.866 11.5621 88.8652 11.5459ZM93.125 10.2559C93.125 11.0946 92.7866 11.8217 92.1465 12.3633L92.1445 12.3652C91.528 12.8831 90.761 13.0985 89.9404 13.1025C90.5899 14.0971 90.9404 15.1881 90.9404 16.376C90.9404 17.7949 90.5393 19.0328 89.5898 19.916C88.6964 20.7471 87.5799 21.1436 86.3164 21.1436C85.0653 21.1435 83.9605 20.7482 83.2373 19.7842L83.2295 19.7744C82.5987 18.9122 82.3164 17.8684 82.3164 16.7119C82.3164 16.402 82.3242 16.1318 82.3467 15.9297L82.3477 15.9258L83.2617 7.95508L83.8887 7.76367C84.5576 7.55927 85.24 7.45608 85.9326 7.45605C86.5142 7.45605 87.1326 7.55767 87.625 7.9209C87.6624 7.94851 87.698 7.97748 87.7324 8.00684C88.3559 7.64237 89.0653 7.45608 89.8447 7.45605C90.7027 7.45605 91.5133 7.65477 92.1484 8.17871C92.8021 8.7016 93.125 9.42982 93.125 10.2559Z" fill="white"/>
<path d="M70.5283 15.3682C70.5283 15.3041 70.5302 15.2379 70.5342 15.1699L70.5527 14.96C70.6647 13.424 71.0164 12.2719 71.6084 11.5039C72.2164 10.7199 73.0327 10.3281 74.0566 10.3281L74.2188 10.332C74.6004 10.353 74.9942 10.4481 75.4004 10.6162L74.8242 15.7998C74.3123 17.2236 73.5527 17.9353 72.5449 17.9355V16.9355C72.9154 16.9354 73.3994 16.7348 73.8428 15.5664L74.3125 11.3457C74.2239 11.3345 74.1388 11.3281 74.0566 11.3281C73.3301 11.3281 72.81 11.5864 72.3984 12.1172C71.9785 12.6637 71.6551 13.5897 71.5498 15.0332L71.5488 15.0518L71.5459 15.0703C71.5335 15.1823 71.5283 15.2815 71.5283 15.3682C71.5283 15.9971 71.6752 16.3777 71.8623 16.6152C72.0569 16.8446 72.2622 16.9355 72.5449 16.9355V17.9355L72.3271 17.9248C71.832 17.874 71.416 17.6462 71.0801 17.2402C70.7581 16.8342 70.5773 16.3054 70.5371 15.6543L70.5283 15.3682ZM77.9443 16.9756C77.9444 16.4956 78.0162 15.7117 78.1602 14.624L78.4961 12.2002C78.5761 11.6242 78.6545 11.044 78.7305 10.46L78.9521 8.69629C78.7141 8.5563 78.3415 8.47745 77.834 8.45996L77.6084 8.45605C77.0005 8.45606 76.4808 8.59233 76.0488 8.86426L75.793 8.76855C75.2771 8.59016 74.7255 8.48743 74.1377 8.46191L73.8408 8.45605V7.45605C74.5875 7.45609 75.3002 7.56158 75.9736 7.77637C76.4777 7.55629 77.0292 7.45606 77.6084 7.45605C78.2673 7.45605 78.9447 7.53161 79.459 7.83398L80.0244 8.16602L79.9453 8.81641C79.8006 10.0059 79.6481 11.1801 79.4873 12.3379L79.4863 12.3398C79.3264 13.4754 79.2148 14.2799 79.1514 14.7559C79.029 15.6807 78.9675 16.3455 78.9512 16.7744C79.0268 16.7086 79.1156 16.6198 79.2168 16.501C79.537 16.1092 79.881 15.4147 80.2002 14.3203L80.6455 12.7949L81.8281 13.8555C82.3997 14.3679 82.8271 14.9708 83.0664 15.667L83.1719 15.9736L83.0771 16.2842C82.586 17.8932 81.8813 19.1861 80.8711 19.9902L80.8613 19.998C79.9537 20.7019 78.9681 21.12 77.9209 21.1201C76.7062 21.1201 75.6442 20.8062 74.8789 20.0996C74.0049 20.7879 72.9619 21.1436 71.7764 21.1436C70.2276 21.1435 68.8776 20.6072 67.7881 19.5371L67.7812 19.5312C67.0891 18.8391 66.6287 18.0143 66.3828 17.083C66.5374 16.7265 66.6812 16.3398 66.8066 15.9199C66.7214 15.6644 66.5109 15.3397 66.1758 14.9453C66.2511 12.8153 66.9372 11.0103 68.3047 9.625C69.7399 8.17126 71.5637 7.45609 73.6963 7.45605V8.45605L73.3467 8.46289C71.6149 8.53593 70.1717 9.15804 69.0166 10.3281L68.793 10.5674C67.7102 11.787 67.168 13.3789 67.168 15.3438C67.168 16.7838 67.6083 17.9442 68.4883 18.8242C69.3843 19.7042 70.4804 20.1435 71.7764 20.1436C73.0883 20.1436 74.1602 19.6239 74.9922 18.584C75.4422 19.544 76.3284 20.0543 77.6504 20.1143L77.9209 20.1201C78.5928 20.12 79.2709 19.8873 79.9551 19.4219L80.248 19.208C80.934 18.662 81.4975 17.7729 81.9385 16.541L82.1201 15.9922C81.9441 15.4802 81.6242 15.0156 81.1602 14.5996C80.8242 15.7514 80.4323 16.5995 79.9844 17.1436C79.5365 17.6714 79.1128 17.9353 78.7129 17.9355L78.6191 17.9326C78.1693 17.895 77.9443 17.5755 77.9443 16.9756ZM73.8408 7.45605V8.45605H73.6963V7.45605H73.8408Z" fill="white"/>
<path d="M63.3027 11.3359C63.3027 10.6078 63.0638 9.98996 62.5859 9.48242L62.3672 9.27246C61.8211 8.79639 61.103 8.5282 60.2139 8.46875L59.8223 8.45605C58.7505 8.45617 57.7903 8.84051 56.9424 9.6084C57.2464 7.7045 57.5347 5.49622 57.8066 2.98438V2.83984C57.8066 2.14988 57.2581 1.7833 56.1611 1.74023L55.9346 1.73633C55.3587 1.73634 54.9024 1.79975 54.5664 1.92773C54.3264 4.16773 53.6305 10.192 52.4785 20H55.6709L56.1025 16.5918C56.3265 14.8319 56.4944 13.496 56.6064 12.584C56.7664 11.944 57.0146 11.4319 57.3506 11.0479C57.7026 10.6479 58.127 10.4482 58.623 10.4482L58.8027 10.4551C59.2068 10.4866 59.5072 10.628 59.7031 10.8799C59.9271 11.1679 60.0391 11.528 60.0391 11.96L59.4629 17.2637L59.4736 17.5146C59.5261 18.0955 59.7628 18.6517 60.1826 19.1836C60.6626 19.7916 61.3987 20.0957 62.3906 20.0957C64.5026 20.0957 65.9746 18.7039 66.8066 15.9199C66.6946 15.5839 66.3662 15.1277 65.8223 14.5518C65.5343 15.7038 65.1509 16.5601 64.6709 17.1201C64.2069 17.6641 63.7666 17.9355 63.3506 17.9355C62.8547 17.9355 62.6064 17.5595 62.6064 16.8076C62.6066 16.3911 62.7913 14.9832 63.1592 12.584C63.2552 11.976 63.3027 11.5599 63.3027 11.3359ZM58.8066 3.03809L58.8008 3.0918C58.6201 4.76041 58.4289 6.29806 58.2334 7.70508C58.7369 7.54074 59.2672 7.4561 59.8223 7.45605C61.0629 7.45605 62.169 7.77373 63.0234 8.51855C63.8665 9.25355 64.3027 10.2166 64.3027 11.3359C64.3027 11.6487 64.2407 12.1368 64.1465 12.7344L64.1475 12.7354C63.9639 13.9322 63.8269 14.876 63.7363 15.5693C63.649 16.2378 63.6123 16.6196 63.6074 16.7754C63.6924 16.7039 63.7947 16.606 63.9102 16.4707L63.9111 16.4688C64.2467 16.0772 64.5818 15.3926 64.8525 14.3096L65.2959 12.5371L66.5498 13.8652C66.7855 14.1148 67.0044 14.3678 67.1943 14.6182C67.1771 14.8541 67.168 15.096 67.168 15.3438C67.168 15.9994 67.2599 16.5972 67.4424 17.1367C67.023 18.2098 66.4758 19.1067 65.7656 19.7783C64.8354 20.658 63.6902 21.0957 62.3906 21.0957C61.1862 21.0957 60.1184 20.7169 59.3975 19.8037C58.8005 19.0475 58.4629 18.194 58.4629 17.2637V17.21L59.0361 11.9248C59.0307 11.6965 58.9743 11.573 58.9141 11.4951L58.9102 11.4922C58.9071 11.4905 58.9017 11.4876 58.8936 11.4844C58.8596 11.4708 58.7776 11.4483 58.623 11.4482C58.4377 11.4482 58.2796 11.5066 58.1016 11.709C57.9036 11.9361 57.722 12.2756 57.5908 12.7754C57.4786 13.6873 57.3131 15.0017 57.0947 16.7178V16.7197C56.8707 18.4642 56.7266 19.5963 56.6631 20.1201L56.5566 21H51.3545L51.4854 19.8838C52.6376 10.0736 53.3329 4.055 53.5723 1.82129L53.6377 1.21191L54.2109 0.993164C54.7082 0.803795 55.3014 0.736341 55.9346 0.736328C56.6241 0.736328 57.3062 0.831693 57.8467 1.15039C58.4695 1.51769 58.8066 2.12492 58.8066 2.83984V3.03809Z" fill="white"/>
<path d="M48.6562 15.3438C48.6562 14.35 48.4233 13.3255 47.958 12.2705L47.7441 11.8164C47.6322 11.5924 47.4436 11.2303 47.1797 10.7305L46.1602 8.81641C45.3802 7.36155 44.9658 6.32807 44.917 5.7168L44.9121 5.59961C44.9122 5.06768 45.0468 4.66434 45.3164 4.38965L45.4404 4.28027C45.7924 3.99234 46.2561 3.84766 46.832 3.84766L47.043 3.85645C47.5224 3.89673 47.9157 4.07844 48.2236 4.40039C48.5756 4.76833 48.7519 5.26385 48.752 5.8877C48.752 6.51169 48.5122 7.1843 48.0322 7.9043H49.832L50.001 7.56055C50.3684 6.77144 50.5518 6.06155 50.5518 5.43164C50.5517 4.4118 50.2288 3.56035 49.582 2.87793L49.4482 2.74414C48.7582 2.08406 47.7795 1.73356 46.5127 1.69238L46.2559 1.68848C44.88 1.6885 43.7119 2.10369 42.752 2.93555C41.8081 3.75144 41.3361 4.75174 41.3359 5.93555C41.3359 6.78352 41.8799 8.27995 42.9678 10.4238C40.2958 11.8318 38.96 13.6164 38.96 15.7764L38.9648 15.9932C39.0117 17.0713 39.4102 18.0226 40.1602 18.8477C40.9101 19.6576 41.9201 20.088 43.1904 20.1387L43.4482 20.1436C44.7681 20.1435 45.9189 19.7568 46.9014 18.9834L47.0957 18.8242C48.0708 17.9841 48.5896 16.9117 48.6504 15.6074L48.6562 15.3438ZM41.0957 15.5361C41.0957 14.1281 41.9922 12.9602 43.7842 12.0322C43.8642 12.1763 43.9921 12.4246 44.168 12.7764C44.3438 13.1121 44.4643 13.3437 44.5283 13.4717C45.0243 14.3997 45.2725 15.1842 45.2725 15.8242L45.2637 16.0801C45.2252 16.6592 45.052 17.1097 44.7441 17.4316C44.4081 17.7836 43.9277 17.96 43.3037 17.96V16.96C43.7358 16.96 43.9229 16.8435 44.0205 16.7412H44.0215C44.1367 16.6207 44.2724 16.3703 44.2725 15.8242C44.2725 15.4222 44.1092 14.8091 43.6465 13.9434L43.6396 13.9316L43.6338 13.9189C43.5871 13.8256 43.5036 13.6674 43.3848 13.4395C42.4293 14.1241 42.0957 14.8343 42.0957 15.5361C42.0957 15.9783 42.2061 16.2661 42.375 16.4727L42.4512 16.5566L42.4639 16.5693L42.4756 16.583C42.7274 16.8535 42.9866 16.9599 43.3037 16.96V17.96C42.6958 17.9599 42.1761 17.7276 41.7441 17.2637C41.3661 16.8856 41.1536 16.3975 41.1064 15.7988L41.0957 15.5361ZM45.9121 5.59961C45.9121 5.70366 45.9589 5.97788 46.1562 6.48633C46.3077 6.87659 46.5274 7.35295 46.8193 7.91992L47.2002 7.34961C47.6116 6.73248 47.752 6.25153 47.752 5.8877C47.7519 5.46014 47.6367 5.23267 47.501 5.09082C47.3632 4.94695 47.174 4.84766 46.832 4.84766C46.4241 4.84766 46.2034 4.94731 46.0732 5.05371L46.0518 5.07129C46.0271 5.09034 45.9122 5.18022 45.9121 5.59961ZM51.5518 5.43164C51.5518 6.36716 51.2433 7.35292 50.7207 8.36328L50.4404 8.9043L47.3398 8.9043C48.0002 10.1395 48.4362 10.9642 48.6387 11.3691C49.3024 12.6967 49.6562 14.025 49.6562 15.3438C49.6562 17.0464 49.0188 18.4881 47.749 19.582H47.748C46.5344 20.625 45.0841 21.1435 43.4482 21.1436C41.8329 21.1436 40.4496 20.633 39.4258 19.5273L39.4199 19.5205C38.4561 18.4603 37.96 17.1979 37.96 15.7764C37.96 13.3793 39.32 11.4766 41.6562 10.0254C41.302 9.28439 41.0171 8.62031 40.8047 8.03613C40.5215 7.25723 40.3359 6.53765 40.3359 5.93555C40.3361 4.44406 40.9477 3.17384 42.0977 2.17969C43.255 1.17692 44.6612 0.688505 46.2559 0.688477C47.8093 0.688477 49.1581 1.08262 50.1396 2.02148C51.0871 2.92791 51.5517 4.09178 51.5518 5.43164Z" fill="white"/>
</svg>
